<svg width="46" height="110" viewBox="0 0 46 110" fill="none" xmlns="http://www.w3.org/2000/svg">
<g clip-path="url(#clip0_103_256)">
<path d="M35.4702 106.647L36.4239 89.0725L39.0574 84.1011C39.0574 84.1011 33.0636 86.8127 23.0289 86.8127C12.9941 86.8127 7.09116 84.1513 7.09116 84.1513L10.0426 89.5743L11.0866 106.647C11.0866 108.478 16.545 109.961 23.2785 109.961C30.0117 109.961 35.4702 108.478 35.4702 106.647V106.647ZM32.4617 24.5758L34.4635 15.8254L45.5495 2.92548L42.6276 0.17334L30.8909 13.915L28.5666 24.3694C26.8172 24.3046 25.067 24.2724 23.3166 24.2728C10.9557 24.2728 0.93512 25.8307 0.93512 27.752C0.93512 29.6735 10.9557 31.2312 23.3166 31.2312C35.6774 31.2312 45.6978 29.6735 45.6978 27.752C45.6978 26.3372 40.2632 25.1194 32.4617 24.5758" fill="#D34A47"/>
<path d="M31.2973 29.4763C31.2973 29.4763 30.8637 29.5838 29.5883 29.5898C28.3126 29.5956 27.4069 29.5807 27.0461 29.2173C26.9491 29.1197 26.896 28.9259 26.8965 28.7947C26.8976 28.545 27.0578 28.3979 27.2621 28.3058L27.4552 28.6408C27.3712 28.6729 27.3232 28.7108 27.323 28.7512C27.3223 28.9409 28.6274 29.0707 29.6256 29.0567C30.624 29.0431 31.8303 28.9522 31.8313 28.7652C31.8313 28.7087 31.7401 28.6554 31.5814 28.6134L31.7737 28.2807C32.0324 28.3695 32.2582 28.5411 32.2577 28.8381C32.2552 29.343 31.6742 29.4198 31.2973 29.4763" fill="white"/>
<path d="M45.5277 2.95095C45.8064 2.59491 45.3834 1.6842 44.5829 0.917118C43.7821 0.150422 42.9069 -0.182688 42.6276 0.173355C42.3487 0.529397 42.7719 1.4401 43.5728 2.2068C44.3733 2.97369 45.2488 3.30719 45.5277 2.95095ZM34.937 63.7194C34.6743 60.9239 40.4662 56.8753 38.9798 56.7456C35.7799 56.9479 34.1873 60.8926 32.5773 65.024C31.9874 66.5382 29.9686 72.9947 28.6446 72.1999C27.3209 71.4054 30.3607 66.096 31.2127 62.9429C30.2296 63.7402 26.6243 66.8378 25.6951 63.9368C24.2013 65.3398 21.0094 66.0999 21.3694 62.4145C20.5747 63.9712 18.7911 66.1446 16.6503 65.2415C13.8388 64.0558 18.2794 54.1517 19.3836 54.6514C20.4879 55.1508 19.1607 57.407 18.8131 58.2831C18.0486 60.2112 17.1655 62.6351 17.7555 63.1313C18.7662 63.9813 21.5165 59.9154 21.5777 59.826C22.0921 59.0745 23.5576 54.1577 24.7388 54.7223C25.9199 55.2869 21.7926 61.7786 23.3358 63.0669C23.6471 63.327 24.9205 62.9066 25.6951 61.9798C26.1964 61.3802 26.024 60.0522 27.6947 55.646C29.3655 51.24 30.8545 45.7528 32.0004 46.1709C33.1462 46.5887 32.2018 49.405 31.7907 50.4548C29.8618 55.3823 26.5262 63.5229 28.0993 62.9066C29.6723 62.2905 30.4915 62.2544 32.0318 60.261C33.5722 58.2676 33.5012 54.9841 34.5279 55.0538C35.5549 55.1238 35.3825 56.1766 35.1335 56.9783C36.144 55.6995 39.9235 53.0062 40.8359 55.6736C41.9168 58.8316 35.4286 63.3931 37.0463 63.1604C38.6235 62.9336 41.1788 61.1439 42.2698 59.5166L45.2729 29.66C45.2729 29.66 42.251 32.4255 23.026 32.4255C3.80078 32.4255 1.09155 29.7175 1.09155 29.7175L3.64824 56.9695C5.00531 52.7042 8.22787 44.0768 13.3075 44.3664C15.6181 44.4981 18.7028 49.4184 16.0605 49.5851C14.9421 49.6555 14.8285 47.1292 13.5042 46.7582C12.5485 46.4904 11.2179 47.3496 10.358 48.2805C8.64315 50.1365 4.95487 57.4593 5.4422 61.1101C6.06309 65.7645 11.2501 59.4927 12.1277 57.6307C12.7458 56.319 13.1634 52.4329 14.5152 52.8406C15.8672 53.2484 14.3973 57.2589 13.4173 60.8048C12.3165 64.7863 11.7378 68.9863 10.358 68.5032C8.97811 68.0204 11.2258 62.8804 11.1445 61.9798C9.8475 63.3031 7.45813 66.6532 4.40129 64.995L5.98911 81.9183C5.98911 81.9183 10.2092 85.6057 22.9218 85.6057C35.6344 85.6057 40.0107 81.9759 40.0107 81.9759L41.9823 62.3747C40.3692 64.1118 35.2639 67.1964 34.937 63.7194" fill="#D34A47"/>
</g>
<defs>
<clipPath id="clip0_103_256">
<rect width="45" height="110" fill="white" transform="translate(0.799988)"/>
</clipPath>
</defs>
</svg>
