<svg width="98" height="100" viewBox="0 0 98 100" fill="none" xmlns="http://www.w3.org/2000/svg">
<g clip-path="url(#clip0_103_242)">
<path d="M0.599976 0H96.842V100H0.599976V0Z" fill="#F7DF1E"/>
<path d="M25.9058 83.5671L33.2709 78.9358C34.6917 81.5534 35.9843 83.7682 39.0846 83.7682C42.0565 83.7682 43.9302 82.5602 43.9302 77.8618V45.9095H52.9745V77.9947C52.9745 87.728 47.4835 92.1583 39.4724 92.1583C32.2373 92.1583 28.0374 88.2649 25.9056 83.5663" fill="black"/>
<path d="M57.8868 82.5603L65.251 78.13C67.1896 81.4195 69.7091 83.8359 74.1665 83.8359C77.914 83.8359 80.3037 81.889 80.3037 79.204C80.3037 75.9819 77.8489 74.8406 73.7142 72.9617L71.4537 71.9541C64.9284 69.0682 60.5998 65.4435 60.5998 57.7909C60.5998 50.7427 65.768 45.3724 73.8437 45.3724C79.5935 45.3724 83.7281 47.4535 86.6995 52.8908L79.6577 57.5894C78.1071 54.7032 76.4279 53.5622 73.8439 53.5622C71.1951 53.5622 69.5153 55.3075 69.5153 57.5894C69.5153 60.4087 71.1951 61.5502 75.0709 63.2955L77.3318 64.3024C85.0197 67.726 89.3483 71.2162 89.3483 79.0697C89.3483 87.5281 82.9527 92.1593 74.3605 92.1593C65.9621 92.1593 60.5353 87.9978 57.887 82.5603" fill="black"/>
</g>
<defs>
<clipPath id="clip0_103_242">
<rect width="97" height="100" fill="white" transform="translate(0.599976)"/>
</clipPath>
</defs>
</svg>
