<svg width="127" height="100" viewBox="0 0 127 100" fill="none" xmlns="http://www.w3.org/2000/svg">
<path d="M109.374 57.4487C104.947 57.475 101.113 58.5946 97.8977 60.2615C96.7105 57.7875 95.5233 55.6258 95.3257 54.0115C95.1031 52.1365 94.831 50.9904 95.1031 48.7511C95.3749 46.5112 96.6116 43.3341 96.6116 43.0737C96.5866 42.8393 96.3393 41.6935 93.792 41.6675C91.2447 41.6414 89.0432 42.1883 88.7959 42.8914C88.5485 43.5946 88.0539 45.2091 87.7323 46.8758C87.2871 49.3237 82.6373 57.9956 79.9908 62.5529C79.1252 60.782 78.3832 59.2196 78.2345 57.9693C78.0122 56.0946 77.7399 54.9485 78.0122 52.7091C78.2842 50.4693 79.5209 47.2925 79.5209 47.0321C79.4962 46.7977 79.2488 45.6518 76.7016 45.6258C74.1538 45.5998 71.9528 46.1466 71.7055 46.8498C71.4581 47.5529 71.1861 49.2196 70.6419 50.8341C70.1223 52.4487 63.939 66.9279 62.3313 70.7039C61.5151 72.631 60.7981 74.1675 60.2785 75.2091C59.7591 76.2508 60.2537 75.2873 60.2043 75.3914C59.7591 76.2768 59.5117 76.7716 59.5117 76.7716V76.7979C59.1655 77.449 58.7945 78.0737 58.6211 78.0737C58.4974 78.0737 58.2501 76.3289 58.6705 73.9333C59.5857 68.9071 61.8117 61.0688 61.7872 60.7823C61.7872 60.6521 62.2074 59.2716 60.3524 58.5688C58.5469 57.8656 57.9041 59.0375 57.7554 59.0375C57.607 59.0375 57.4834 59.4542 57.4834 59.4542C57.4834 59.4542 59.4867 50.6263 53.6497 50.6263C49.9892 50.6263 44.9436 54.819 42.4456 58.6472C40.8626 59.5586 37.4989 61.4854 33.9373 63.543C32.577 64.3242 31.1672 65.1576 29.8316 65.9128L29.5598 65.5998C22.4861 57.6571 9.4022 52.0321 9.9463 41.355C10.1442 37.4748 11.4303 27.2404 35.0755 14.8446C54.4417 4.68832 69.9494 7.47477 72.6451 13.6727C76.4787 22.5269 64.3594 38.9852 44.2268 41.355C36.5595 42.2664 32.5278 39.1414 31.514 37.9696C30.4504 36.7456 30.302 36.6935 29.9063 36.9279C29.2632 37.2925 29.659 38.3862 29.9063 39.0373C30.4999 40.6779 32.9732 43.5946 37.1779 45.0529C40.8629 46.3289 49.866 47.0321 60.7486 42.605C72.9421 37.631 82.4644 23.8289 79.6696 12.2925C76.8252 0.547692 58.3248 -3.30647 40.8384 3.22998C30.4255 7.13623 19.1471 13.23 11.0346 21.2248C1.38864 30.7039 -0.144824 38.9852 0.498236 42.4227C2.74921 54.6883 18.8008 62.6831 25.2315 68.5946C24.9099 68.7766 24.6131 68.9589 24.3411 69.1154C21.1258 70.7818 8.88281 77.5268 5.81589 84.662C2.35324 92.7349 6.36002 98.5425 9.03121 99.3237C17.2921 101.746 25.7509 97.3966 30.3265 90.2352C34.8772 83.0737 34.3333 73.7768 32.231 69.5321L32.1565 69.3758L34.6793 67.8133C36.312 66.7977 37.9196 65.8602 39.3292 65.0526C38.538 67.3182 37.9688 70.0005 37.6723 73.9068C37.326 78.4904 39.1068 84.4276 41.4565 86.7714C42.4953 87.7867 43.7319 87.813 44.4987 87.813C47.2193 87.813 48.456 85.443 49.8163 82.6047C51.4982 79.1412 52.9822 75.1307 52.9822 75.1307C52.9822 75.1307 51.1272 85.9901 56.1975 85.9901C58.0525 85.9901 59.9075 83.4641 60.7484 82.162V82.188C60.7484 82.188 60.7979 82.1099 60.8968 81.9276C61.0006 81.7661 61.0995 81.6011 61.1936 81.4331V81.381C61.9356 80.0268 63.5927 76.9279 66.066 71.7977C69.2564 65.1831 72.3235 56.9018 72.3235 56.9018C72.3235 56.9018 72.6203 58.9331 73.5355 62.2664C74.0794 64.2458 75.2665 66.4071 76.1817 68.5164C75.4397 69.6102 74.9945 70.2354 74.9945 70.2354L75.0192 70.2615C74.4259 71.0948 73.7578 71.9805 73.0655 72.8656C70.5427 76.0427 67.5253 79.6628 67.1296 80.7044C66.6596 81.9281 66.7586 82.8396 67.6737 83.569C68.3415 84.0899 69.5287 84.1938 70.7901 84.0899C73.0655 83.9333 74.6485 83.3347 75.4399 82.9698C76.6766 82.5011 78.0864 81.7979 79.4467 80.7563C81.92 78.8294 83.4288 76.0951 83.2804 72.4492C83.2062 70.444 82.5878 68.4649 81.8211 66.5899C82.0437 66.2513 82.2665 65.9125 82.4889 65.5482C86.3967 59.5323 89.4142 52.918 89.4142 52.918C89.4142 52.918 89.711 54.9492 90.6261 58.2826C91.0958 59.9753 92.0359 61.8245 92.8769 63.6474C89.2163 66.7985 86.9161 70.4443 86.1247 72.8401C84.6654 77.2672 85.8032 79.2724 87.9549 79.7412C88.9193 79.9495 90.3046 79.4808 91.3431 79.012C92.6293 78.5693 94.1875 77.8138 95.6222 76.6943C98.0956 74.7672 100.47 72.0849 100.346 68.4651C100.272 66.7985 99.852 65.1578 99.2828 63.5953C102.399 62.2412 106.43 61.4599 111.55 62.111C122.557 63.4651 124.733 70.7047 124.313 73.7255C123.893 76.7466 121.592 78.413 120.825 78.9339C120.059 79.4287 119.811 79.6112 119.886 79.9755C119.984 80.5227 120.331 80.4964 120.999 80.3925C121.914 80.236 126.786 77.9185 126.984 72.3458C127.281 65.1833 120.825 57.3709 109.374 57.4487ZM24.4895 87.5789C20.8537 91.7716 15.7339 93.3602 13.5574 92.006C11.2077 90.5737 12.1226 84.4018 16.5996 79.9487C19.3202 77.2404 22.8571 74.7404 25.182 73.2039C25.7014 72.8654 26.4929 72.3709 27.4327 71.7716C27.5811 71.6677 27.6801 71.6154 27.6801 71.6154C27.8532 71.5112 28.0511 71.381 28.2489 71.2508C29.9061 77.605 28.3231 83.1779 24.4895 87.5789ZM51.0777 68.5425C49.8163 71.7977 47.1451 80.1571 45.5375 79.6883C44.1521 79.2977 43.3115 72.9696 45.2651 66.7196C46.2545 63.5682 48.3568 59.8185 49.5935 58.3599C51.5971 56.0162 53.7734 55.2349 54.3177 56.1985C54.9608 57.4487 51.8692 66.5112 51.0777 68.5425ZM73.0161 79.5841C72.4719 79.8708 71.9773 80.0789 71.7547 79.9229C71.5815 79.8188 71.977 79.4281 71.977 79.4281C71.977 79.4281 74.7224 76.3292 75.8107 74.8969C76.429 74.0638 77.171 73.1003 77.9625 72.0063V72.3188C77.9627 76.0685 74.5495 78.5685 73.0161 79.5841ZM89.9333 75.5216C89.5376 75.2091 89.5873 74.2456 90.9227 71.2248C91.4423 70.0268 92.6293 68.0216 94.6821 66.1206C94.9295 66.9018 95.0781 67.6568 95.0531 68.3602C95.0286 73.0477 91.8628 74.7925 89.9333 75.5216Z" fill="#CF649A"/>
</svg>
